# xmcd CD database file
#
# Track frame offsets:
#	150
#	18606
#	38560
#	57016
#
# Disc length: 1023 seconds
#
# Revision: 0
# Processed by: cddbd v1.5.2PL0 Copyright (c) Steve Scherf et al.
# Submitted via: CD2WAV32(JP) R3.22
#
DISCID=2703fd04
DTITLE=工藤真由＆池田彩 - Tomorrow Song～あしたのうた～
DYEAR=2010
DGENRE=Anime(J)
TTITLE0=Tomorrow Song～あしたのうた～
TTITLE1=HEART GOES ON
TTITLE2=Tomorrow Song～あしたのうた～（オリジナル・メロディ入り・カラオケ）
TTITLE3=HEART GOES ON（オリジナル・カラオケ）
EXTD=
EXTT0=
EXTT1=
EXTT2=
EXTT3=
PLAYORDER=
